PathFileType	4	(X/Y/Z)	Kaydara	
DataRate	CameraRate	NumFrames	NumMarkers	Units	OrigDataRate	OrigDataStartFrame	OrigNumFrames	
120.00	120.00	4	72	mm	120.00	168	268	
Frame#	Time	Hips			RightUpLeg			RightLeg			RightFoot			RightFoot_End			LeftUpLeg			LeftLeg			LeftFoot			LeftFoot_End			Spine			Spine1			Spine2			Spine3			Neck			Head			Head_End			RightShoulder			RightArm			RightForeArm			RightHand			RightHandThumb1			RightHandThumb2			RightHandThumb3			RightHandThumb3_End			RightInHandIndex			RightHandIndex1			RightHandIndex2			RightHandIndex3			RightHandIndex3_End			RightInHandMiddle			RightHandMiddle1			RightHandMiddle2			RightHandMiddle3			RightHandMiddle3_End			RightInHandRing			RightHandRing1			RightHandRing2			RightHandRing3			RightHandRing3_End			RightInHandPinky			RightHandPinky1			RightHandPinky2			RightHandPinky3			RightHandPinky3_End			LeftShoulder			LeftArm			LeftForeArm			LeftHand			LeftHandThumb1			LeftHandThumb2			LeftHandThumb3			LeftHandThumb3_End			LeftInHandIndex			LeftHandIndex1			LeftHandIndex2			LeftHandIndex3			LeftHandIndex3_End			LeftInHandMiddle			LeftHandMiddle1			LeftHandMiddle2			LeftHandMiddle3			LeftHandMiddle3_End			LeftInHandRing			LeftHandRing1			LeftHandRing2			LeftHandRing3			LeftHandRing3_End			LeftInHandPinky			LeftHandPinky1			LeftHandPinky2			LeftHandPinky3			LeftHandPinky3_End			
		X1	Y1	Z1	X2	Y2	Z2	X3	Y3	Z3	X4	Y4	Z4	X5	Y5	Z5	X6	Y6	Z6	X7	Y7	Z7	X8	Y8	Z8	X9	Y9	Z9	X10	Y10	Z10	X11	Y11	Z11	X12	Y12	Z12	X13	Y13	Z13	X14	Y14	Z14	X15	Y15	Z15	X16	Y16	Z16	X17	Y17	Z17	X18	Y18	Z18	X19	Y19	Z19	X20	Y20	Z20	X21	Y21	Z21	X22	Y22	Z22	X23	Y23	Z23	X24	Y24	Z24	X25	Y25	Z25	X26	Y26	Z26	X27	Y27	Z27	X28	Y28	Z28	X29	Y29	Z29	X30	Y30	Z30	X31	Y31	Z31	X32	Y32	Z32	X33	Y33	Z33	X34	Y34	Z34	X35	Y35	Z35	X36	Y36	Z36	X37	Y37	Z37	X38	Y38	Z38	X39	Y39	Z39	X40	Y40	Z40	X41	Y41	Z41	X42	Y42	Z42	X43	Y43	Z43	X44	Y44	Z44	X45	Y45	Z45	X46	Y46	Z46	X47	Y47	Z47	X48	Y48	Z48	X49	Y49	Z49	X50	Y50	Z50	X51	Y51	Z51	X52	Y52	Z52	X53	Y53	Z53	X54	Y54	Z54	X55	Y55	Z55	X56	Y56	Z56	X57	Y57	Z57	X58	Y58	Z58	X59	Y59	Z59	X60	Y60	Z60	X61	Y61	Z61	X62	Y62	Z62	X63	Y63	Z63	X64	Y64	Z64	X65	Y65	Z65	X66	Y66	Z66	X67	Y67	Z67	X68	Y68	Z68	X69	Y69	Z69	X70	Y70	Z70	X71	Y71	Z71	X72	Y72	Z72	

168	1.392	2446.805	859.65103	-201.189	2492.9484386551935	844.3582871246709	-236.21768624968163	2403.8843715051657	442.7839238017917	-267.4290361345194	2483.021740793522	70.06392881770704	-389.9192069199439	2459.7957973454686	-26.962203872233793	-250.9013829672655	2407.9041420159965	846.291984820706	-152.76937598452872	2283.563797843444	455.73886348277074	-70.70864756838469	2213.18575791913	77.55831614996553	87.87483820894238	2270.366304020646	25.003313583273005	259.32597777573443	2412.2966221597403	985.7435841715815	-257.6131407740015	2365.7161628425424	1059.3729925428242	-299.45519143205235	2311.8228068065937	1132.173527897769	-342.8544845213348	2252.485282158206	1195.1167172691485	-384.48706627200164	2188.105941448035	1262.2256177422648	-425.0157448131261	2145.2134207167023	1335.8663678736098	-386.5325835701629	2123.3526073413104	1427.3689588104983	-260.42709198467657	2218.1746095761296	1243.196945735319	-424.15442899602476	2258.5551522294745	1242.9471558282828	-466.3836502037105	2349.812838959042	1085.9260368639852	-434.2076724903551	2410.861826995197	1076.7400207388355	-501.7613305146155	2418.280350032804	1100.2397222365444	-504.15444451496296	2420.7214631746956	1114.8214840377257	-516.3572388216476	2423.027971940062	1121.9422576221625	-525.1098537587728	2425.4696580147524	1125.283050564397	-532.6243277817803	2421.998824697043	1091.7736111053262	-504.41619745744134	2437.5283652379153	1102.3968667907218	-513.1881706383253	2443.7221654304676	1108.4339301513571	-523.9421519588843	2443.3415387324267	1113.0901470878512	-532.2919881795226	2440.172346581238	1117.5531831294277	-540.3256263338543	2422.888648958053	1083.0875088979817	-505.02432901203315	2438.518319415898	1088.7511848483264	-513.9078552829092	2445.3382625697373	1094.1565538245502	-525.7001868913605	2444.9084445129947	1099.2067776236554	-535.8015988551413	2441.4550578445264	1103.8143463362662	-544.6052930948146	2423.1749192802745	1076.6757369582824	-505.1863208804497	2437.5884200275673	1076.17406694126	-513.1602054783278	2443.570106863519	1079.668132863333	-523.4838004051331	2443.175367302851	1083.8930308280947	-533.251505089026	2439.937717125585	1087.918972699829	-541.5406097424889	2422.6303682028865	1069.0091959140673	-505.46395175425295	2435.7004979369062	1063.8128370782918	-512.8045614738716	2440.485513578091	1064.7138858007904	-521.1076205350859	2440.1952126198657	1066.8779630186075	-528.2497875051594	2437.3258146073877	1069.916216847413	-535.60269711767	2200.497322471317	1238.9026004155653	-398.14539980621504	2176.2703797156237	1200.942703603862	-354.7600219058091	2248.829933526961	1100.1777477607213	-442.4429451109618	2352.4977134467454	1081.1750563402472	-415.58554007898806	2355.7843229769346	1103.9268781868411	-418.452872137394	2366.9222691948726	1107.7687925444025	-432.02917432561526	2374.4795848421013	1107.8443915985167	-443.0914675795028	2380.6094308267766	1105.6832569414576	-453.6890101742229	2354.555629749992	1098.1146966078832	-424.0113813495165	2360.4979755610557	1108.2081807736736	-444.87872510495777	2368.9938258423804	1107.645352767531	-461.8998059207199	2376.370334710807	1104.4656252915606	-470.9248801191504	2383.8887640715293	1099.9249606589844	-477.34473638713246	2354.014413496865	1090.331428424443	-427.7767136537325	2359.51641419496	1095.9685030185817	-450.1660476425223	2368.7018398248683	1094.2851490827104	-469.1716994327445	2377.5604227451568	1089.9358372271568	-480.2675421926299	2385.7670635921068	1084.718092169417	-487.3928618242399	2353.436008923419	1084.6370280580031	-429.89370406155587	2357.734912499495	1084.927365511899	-451.7653588531483	2365.6456550028615	1082.3577455545874	-468.73740393313597	2374.139858593986	1077.5770420796177	-479.6561755169409	2381.832188362734	1072.3936159698017	-486.4581048499161	2352.9469496604584	1077.2926989947034	-431.81352519906966	2356.4413237613617	1073.2427130289827	-453.02841724738647	2362.60884783195	1069.4634568820873	-467.15811742227186	2368.7237220152488	1065.1435958401923	-475.3831064259816	2375.4913546072435	1060.072645208278	-481.55859570838453
169	1.4	2446.805	859.65103	-201.189	2492.514175852213	844.112009821049	-236.48643007583593	2403.898199234282	442.47436493250785	-267.73782447214097	2483.4478238460497	70.21738327621402	-390.9122926618638	2460.7682039191714	-26.963285925817903	-252.07660213673464	2408.317218098738	846.5428825433258	-152.4769955776299	2283.923012992328	456.0621832065797	-70.16032477478707	2213.4245237983046	77.83091570658202	88.22306606890608	2270.7025190764452	25.263812650581194	259.6180582014793	2412.4152598255596	985.738525533612	-257.69946874331714	2365.8863983055435	1059.4243975389197	-299.50520009112995	2312.057180407194	1132.3141249685063	-342.8468155272184	2252.7843782414175	1195.3802200281664	-384.3981209047183	2188.4725372762937	1262.6150565384046	-424.83434532611835	2145.558688720764	1336.263390637315	-386.40835320306945	2123.7159454095204	1427.839134838364	-260.37732692464414	2218.40505321542	1243.4947221680713	-423.94569037816495	2258.373787916916	1243.1738537144645	-465.7699074104796	2349.1328439058507	1086.1614107764765	-432.95378342559263	2409.661563038005	1077.3653464569995	-500.20064326105273	2417.1015197433717	1100.976491402675	-502.50906037171234	2419.618167805954	1115.642357794092	-514.6461789931062	2421.9693372743577	1122.8158204946724	-523.3579862346988	2424.441470063325	1126.1955133229683	-530.8426539041577	2420.785505289177	1092.5022649826249	-502.778986767356	2436.3003354795214	1103.2498156507665	-511.45976645913566	2442.526653215984	1109.3588022220245	-522.1595145860996	2442.1973142629613	1114.0468829968588	-530.4837504690562	2439.091538684139	1118.527622369624	-538.5016849363416	2421.6562893772407	1083.7951568161534	-503.40413759694167	2437.2612982730293	1089.5687077302343	-512.2079238993022	2444.1143135821876	1095.0493747444812	-523.9436226962292	2443.745215021766	1100.1365083222643	-534.0153795882671	2440.360653548399	1104.7626982128731	-542.8024803348337	2421.92899252622	1077.3655061901854	-503.58040060726063	2436.3071812039925	1076.9471816173107	-511.49497960912635	2442.3152762442273	1080.5034379221547	-521.7719442141965	2441.97782091678	1084.7621126002803	-531.5124955732355	2438.8042716049154	1088.8046999316111	-539.7866915220875	2421.3730824345816	1069.6737047919223	-503.87774515113864	2434.402177962683	1064.5387082879968	-511.17581942155323	2439.2047145340057	1065.4838266096772	-519.4460692703676	2438.9544503086518	1067.6697688049617	-526.570619591762	2436.1408323960086	1070.721174096461	-533.9115790981026	2200.9591151064956	1239.2926342806259	-398.0657131750309	2177.08650894997	1201.6569931422257	-354.87253948347745	2248.7674820643024	1100.3775836797183	-441.93312857606116	2351.544881939045	1081.5717097210706	-415.0059956719716	2354.84368892608	1104.4074763969697	-417.91988176812	2365.928376527857	1108.25661434189	-431.4502449583143	2373.4409879615782	1108.3273197602668	-442.46568000753547	2379.5270566138406	1106.1536181387585	-453.01144618025	2353.5930324851333	1098.5732646353117	-423.43437469036303	2359.4740398361955	1108.699305025932	-444.228819192779	2367.904770471036	1108.127961825302	-461.1725112987688	2375.239437355439	1104.9313847060625	-470.1525957121548	2382.7223237662633	1100.3689840563463	-476.53731856431557	2353.0321895524216	1090.760394391367	-427.16054549726647	2358.4637472320055	1096.4132183521835	-449.4576132678674	2367.575691434168	1094.7165221369107	-468.37384372166173	2376.382637662052	1090.3449408096797	-479.4130263576198	2384.5498311170413	1085.1024681712224	-486.4987467614625	2352.44164855291	1085.0445151296703	-429.25188537252006	2356.6673721635525	1085.3310668099202	-451.0190539114427	2364.5117095101414	1082.7456488094792	-467.90823562956155	2372.954847474688	1077.9412527964355	-478.76973121838233	2380.6094886861442	1072.7335297331247	-485.5331888271944	2351.9390744667135	1077.6724472979024	-431.1430074591042	2355.3585298848284	1073.6027620690859	-452.2448769394306	2361.4695079746925	1069.8043691458574	-466.3009906574311	2367.5455063206373	1065.4640901320079	-474.4807046599925	2374.2788135044384	1060.369803897709	-480.620095464483
170	1.408	2446.805	859.65103	-201.189	2492.05502350149	843.7560525157403	-236.89476320363943	2403.8984261431124	442.0396604102395	-268.0258452585839	2483.881923952453	70.25464482866192	-391.93184277096384	2461.729871134632	-27.101508217182516	-253.2943843511357	2408.748302710599	846.9122057483113	-152.02239863672744	2284.3393642434658	456.4825105483665	-69.49022884534476	2213.361435433733	78.66289267425715	89.36102611938641	2270.780335495808	26.001762890599917	260.67389352546115	2412.565247222843	985.7018053434668	-257.87603341793834	2366.094294969904	1059.431055350134	-299.67236210286677	2312.332216738264	1132.3996495467416	-342.97434298724403	2253.1266936661773	1195.587108910692	-384.4493540541474	2188.8847078205217	1262.946105096394	-424.798478977532	2145.958897194909	1336.6069977663624	-386.4283548712716	2124.1472123906883	1428.2570038598478	-260.469855512525	2218.6825468510933	1243.735609937519	-423.88015840910714	2258.207083508348	1243.229420941535	-465.47531908403346	2347.6588972123213	1085.4081364065273	-431.77757025715425	2407.6662207032014	1077.0320759599142	-498.6932793728233	2415.1294827010574	1100.7516510975272	-500.91723401678655	2417.7202934845286	1115.5010029271334	-512.9875967143165	2420.1147912572887	1122.7268355908004	-521.6579479989032	2422.615935735556	1126.1452621642454	-529.1123596056202	2418.7780222772	1092.2691778137187	-501.1958844869823	2434.277132378717	1103.1377726932033	-509.7862887136711	2440.5340356386637	1109.31781097004	-520.4314388227157	2440.2545029164867	1114.0381284930452	-528.7292029397561	2437.2107155933545	1118.5374988099352	-536.7302598112315	2419.628710877689	1083.5415533442736	-501.83824703801935	2435.207505961776	1089.4220723237108	-510.5631977282006	2442.0913463763695	1094.9771516982503	-522.2418929006162	2441.781113233681	1100.1016850912897	-532.2829472250567	2438.4637858736132	1104.7475358270804	-541.0521882237958	2419.887137077647	1077.0944382424454	-502.0289157679894	2434.2280375981245	1076.7571723667077	-509.8851353703736	2440.260447098945	1080.374928939603	-520.1151771129151	2439.9784105529925	1084.6678998019001	-529.827575584716	2436.8674356857573	1088.7281321488688	-538.0856697414658	2419.319006294035	1069.3780555488347	-502.3460219340187	2432.304750602521	1064.302692589992	-509.6024952427268	2437.12292812398	1065.2914699242529	-517.8397209468234	2436.911240912243	1067.4997260312762	-524.9459424300732	2434.1519870631773	1070.5652018875642	-532.2739080898489	2201.4631527065626	1239.6241121949147	-398.13025316386506	2177.945938500775	1202.3123044563422	-355.13249907305953	2248.221579526419	1099.9053738739815	-441.7597901496689	2350.079719549537	1081.312441851735	-414.76530699383284	2353.496013918677	1104.220710957963	-417.5218004569227	2364.719107470958	1108.1002284397164	-430.808837263029	2372.337307883426	1108.193851148511	-441.66238046954857	2378.5192573389804	1106.040765976515	-452.0796562978125	2352.29239367669	1098.4057417385743	-423.05760140784315	2358.4446332892303	1108.6513479925882	-443.6346485717873	2367.046467424546	1108.1296930990013	-460.3808533681491	2374.449284971471	1104.9348899228291	-469.2235129695117	2381.9628004796755	1100.3543247821888	-475.4846087563222	2351.7462767409543	1090.591911759778	-426.8097043010863	2357.4503541886565	1096.360844351543	-448.9087653486222	2366.7500452285717	1094.7178047732418	-467.6135688942059	2375.639716250783	1090.3480994406996	-478.48890707855327	2383.8406645141577	1085.085618864794	-485.4403075742539	2351.1595106964655	1084.8726738243265	-428.9253867743151	2355.633598719053	1085.2614730954926	-450.53762649331327	2363.642211597592	1082.722067691352	-467.24699252817305	2372.1654737371773	1077.919079438224	-477.9528235533544	2379.8520158350752	1072.6923516841734	-484.5911045730694	2350.6511172902356	1077.4903170985374	-430.8471177618516	2354.2958558325045	1073.5093625597515	-451.827289148844	2360.5382817528634	1069.746188825063	-465.7470534413365	2366.672672438802	1065.4061514368198	-473.8169136843462	2373.4342102281694	1060.294573654289	-479.84755324021074
171	1.417	2446.805	859.65103	-201.189	2491.647095559143	843.6479743580522	-236.91300901502868	2403.975771473904	441.8349332418943	-267.82995576234805	2484.405296161073	70.52578111011786	-392.4651130796715	2462.7701601962535	-27.034215536658387	-254.04154280639997	2409.136357505567	847.0102664595529	-152.01374799790926	2284.729917110273	456.62173026750355	-69.28192656760969	2213.5567664672494	78.7694759450248	89.38771699586817	2271.3378929990968	25.83300148587978	260.5248014750429	2412.6768391935507	985.7524588051775	-257.8325400126724	2366.2679239154522	1059.5586370212206	-299.5715619284498	2312.57845664859	1132.627758677477	-342.80924846234245	2253.444714846232	1195.932530842582	-384.2186476253788	2189.2770473969676	1263.4114965785516	-424.4922602286789	2146.324471564601	1337.082923914991	-386.1891227055444	2124.557958290741	1428.8047978480986	-260.2988807669732	2218.9400345866607	1244.1011537481772	-423.5515749039408	2258.0513230790857	1243.4598035964943	-464.8443640641711	2347.60068698063	1086.294434863805	-430.4855650045225	2407.1421084507565	1078.4697045373427	-496.9760005943647	2414.6309634191157	1102.2927298662657	-499.11835480165905	2417.296604856312	1117.1211418518205	-511.1230736141173	2419.7345202813403	1124.3962777240893	-519.7523340271143	2422.264415968454	1127.8508780231878	-527.176448473501	2418.242962127479	1093.8014269544083	-499.4046196196834	2433.7264428113826	1104.7832196553074	-507.90545410143153	2440.0136288851045	1111.0296328962793	-518.4961044987422	2439.7838193885327	1115.780309381107	-526.7674769378378	2436.8020159324424	1120.2974556028994	-534.7517327479052	2419.0724895157496	1085.0536119798073	-500.0630454071076	2434.6245845037947	1091.0336242749202	-508.70931465324946	2441.5387815891495	1096.6580776346448	-520.3309648122263	2441.2872447215177	1101.81777740269	-530.3413344623899	2438.0371124151816	1106.482371911513	-539.0927639762059	2419.3158894290796	1078.5894537472627	-500.2672808998691	2433.618418658473	1078.3268829809324	-508.0645667544423	2439.67458234221	1082.0018341344457	-518.2474872715775	2439.44772778505	1086.3269912885662	-527.9316697076002	2436.39926001135	1090.4040183541474	-536.1736678381696	2418.7346550717684	1070.849273999433	-500.6031500892842	2431.675519637938	1065.8281575707895	-507.81688016406787	2436.5086790463592	1066.8573041406796	-516.0206834575878	2436.335280666439	1069.086408822645	-523.1084101658973	2433.6302685991254	1072.1652515184396	-530.4233180584791	2201.9457026548293	1240.1039334221473	-397.9101631471049	2178.7831681974367	1203.1167333749652	-355.12524631993864	2248.762491768797	1100.9002930996378	-440.8164736729469	2349.6721242589024	1082.484049601453	-413.73458564708454	2353.2380135247754	1105.4590032384515	-416.2924087379346	2364.630350049694	1109.3747053116829	-429.30804504548684	2372.376073538627	1109.4993697457494	-439.9841350300305	2378.6725962773417	1107.3771626846858	-450.2633527158954	2352.086931092102	1099.6775338186367	-421.85934807662426	2358.5657758377783	1110.0700033535336	-442.1886643708181	2367.3725215453537	1109.6161374490416	-458.7198729732149	2374.8572436356662	1106.428440986457	-467.41530818355074	2382.4078641589444	1101.8301144783052	-473.5454003290373	2351.5546499289335	1091.872843660224	-425.6494601194714	2357.5847848108315	1097.7899762475918	-447.5274510722194	2367.1088167841485	1096.2215989231242	-466.0034267475172	2376.0976544759733	1091.8607929989348	-476.7039094190734	2384.3393669764882	1086.579037550526	-483.51331410011534	2350.96968382487	1086.1567255804164	-427.79877625159816	2355.7385800949282	1086.682280275647	-449.2434312754258	2363.9429631233884	1084.208413372951	-465.7595802838572	2372.5620064569393	1079.4142530684132	-476.3000655952611	2380.2869425856925	1074.1695172610748	-482.8064024980795	2350.451101220439	1078.770435283609	-429.76283429315646	2354.3612515441896	1074.913930897029	-450.6168550341101	2360.7595272422764	1071.20336001339	-464.3923501364933	2366.963335714936	1066.869822576203	-472.346663857724	2373.7586288157495	1061.742333164652	-478.2633358071707
